<?xml version="1.0" encoding="UTF-8"?><svg id="Layer_2" xmlns="http://www.w3.org/2000/svg" viewBox="0 0 80.77 124.45"><defs><style>.cls-1{fill:#f78d2d;}</style></defs><g id="Layer_1"><path class="cls-1" d="M42.63,123.82c-4.89-.7-21.36-2.49-21.37-8.58v-7.71c-8.53-.29-7.51-.25-13.54-4.52-1.74-1.24-3.14-2.94-4.48-4.58-2.76-3.4-3.79-7.21-2.96-11.62,1.65-8.72,9.15-9.98,16.87-8.89l4.45,2.87.5-8.37c.08-1.34-.59-3.53-.7-5.13,2.38-3.86,2.66-5.11,6.82-7.3,2.12-1.11,9.45-3.26,13.9-1.84l18.32,1.17c2.24.14,4.41,1.13,6.48,1.88,4.32,1.57,8.37,3.23,11.08,7,2.11.17,2.92,1.7,2.74,3.57-1.07,11.15-1.4,22.15-1.07,33.34l.22,7.34c.06,2.13-.92,2.43-2.33,3.54-4.88,3.85-10.3,6.23-16.49,7.18l-6.08.93c-4.21.64-8.21.32-12.36-.27ZM74.32,69.37c-2.15-2.93-11.76-5.86-14.92-6.3-7.56-1.05-14.9-1.24-22.48-1.41-6.11-.14-11.43,4.09-10.33,7.12,2.3,6.31,31.04,5.56,37.23,5.42,2.32-.05,13.08-1.31,10.49-4.82ZM75.95,106.89c-.22-10.43.02-20.6.64-31.3-3.93,1.51-7.86,2.01-12.1,2.36-8.45.27-16.67.04-25.08-.67-5-.42-9.47-1.64-13.9-3.98-.54,12.86-.81,25.25-.44,37.83.09,3,1.12,5.19,4.01,6.09,11.6,3.58,25.29,4.5,36.82.05,6.33-2.44,10.19-4.17,10.05-10.39ZM21.03,100.65c.92-4.42.3-9.06.33-13.27-.45-.92-1.37-2.73-1.92-3.56-2-3-5.94-3.27-9.14-2.37-2.6.72-5.61,3.16-5.88,6.46-.52,6.34,3.58,11.32,9.14,14.04,1.95.95,6.83,1.78,7.47-1.3Z"/><path class="cls-1" d="M42.06,48.7l1.3-5.48c.44-1.87-.53-3.48-2.09-4.28-4.28-2.17-5.9-6.64-4.41-11.11,2.56-7.64,8.85-13.46,7.09-19.21-1.26-4.13-6.61-3.19-8.31-6.43-.32-.61.66-2.26,1.36-2.19,3.86.4,8.18,2.45,9.99,6.08,2.13,4.27.78,9.34-1.45,13.28-2.41,4.26-8.33,12.85-3.15,15.32,3.63,1.73,5.25,5.28,4.74,9.21l-.74,5.68c-.1.75-1.59,1.66-2.27,1.71-.78.05-2.27-1.69-2.06-2.58Z"/><path class="cls-1" d="M57.66,50.65c-4.13.99-4.51-9.1-3.18-11.34l4.49-7.58c.35-.6.5-2.38.16-2.97-1-1.76-3.73-.97-5.08-2.94-.45-.65.16-2.86.98-2.93,3.52-.3,7.14,1.9,7.9,5.39,1.61,7.44-6.73,10.22-4.04,18.51.32,1-.22,3.61-1.23,3.85Z"/><path class="cls-1" d="M26.88,43.67c-2.83,4.64,3.21,7.63-.56,9.73-.87.49-2.68.02-3.26-1.22-4.61-9.93,4.78-14.84,3.51-18.38-1.02-2.82-4.16-1.56-5.35-4.28-.32-.74.67-2.79,1.62-2.55,2.35.6,4.51,1.93,6.19,3.64,3.66,3.7.02,9.5-2.15,13.07Z"/></g></svg>