<?xml version="1.0" encoding="UTF-8"?><svg id="Layer_3" xmlns="http://www.w3.org/2000/svg" viewBox="0 0 33.84 57.72"><defs><style>.cls-1{fill:#a4cf60;}</style></defs><g id="Layer_1"><path class="cls-1" d="M25.58,39.97c-3.33-.14-6.92,2.84-8.63,1-.42-.45-.38-2.11.09-2.59,4.59-4.71,8.13-6.97,12.68-12.94-5.27-.69-15.52,5.48-20.15,8.32-1.24.76-3.17,1.34-4.19-.29-.54-.87.45-2.96,1.4-3.83l15.16-14c2.1-1.94,8.19-8.71,7.02-11.48s-11.71,2.02-13.91,3.1c-4.13,2.02-8.11,4.03-11.41,7.24-.47.46-1.46,1.02-1.99.99s-1.38-.81-1.57-1.3C-1.23,10.76,15.75,3.02,19.05,1.68,21.88.53,25.04-.04,28.11,0c2.44.03,4.54,2.67,4.35,5.04-.23,2.84-1.59,5.44-3.47,7.54-4.37,4.85-8.89,9.07-13.96,13.82,3.07-.91,16.8-8.05,18.65-3.02,1.38,3.76-6.66,9.86-9.49,12.87.9.09,2.47,0,3.17.47,1.44.96,1.72,4.13.74,5.98l-4.72,8.83,1.14,3.39c.34,1.01-.96,2.64-1.86,2.78-1.3.21-2.59-.69-2.88-2.33-.35-1.99.23-4.39,1.18-6.25l4.63-9.14Z"/></g></svg>